<svg fill="none" height="45" viewBox="0 0 44 45" width="44" xmlns="http://www.w3.org/2000/svg" xmlns:xlink="http://www.w3.org/1999/xlink"><linearGradient id="a" gradientUnits="userSpaceOnUse" x1="9.20638" x2="40.7948" y1="34.9857" y2="1.67001"><stop offset="0" stop-color="#4312a5"/><stop offset=".25638" stop-color="#6233df"/><stop offset="1" stop-color="#849bff"/></linearGradient><path d="m21.5 11c-6.338 0-11.5 5.162-11.5 11.5s5.162 11.5 11.5 11.5h5.75v-2.3h-5.75c-5.0953 0-9.2-4.1047-9.2-9.2s4.1047-9.2 9.2-9.2 9.2 4.1047 9.2 9.2v1.725c0 .9669-.7581 1.725-1.725 1.725s-1.725-.7581-1.725-1.725v-1.725c0-3.162-2.588-5.75-5.75-5.75s-5.75 2.588-5.75 5.75 2.588 5.75 5.75 5.75c1.6256 0 3.091-.6913 4.1396-1.7856.7257 1.0736 1.9528 1.7856 3.3354 1.7856 2.2094 0 4.025-1.8156 4.025-4.025v-1.725c0-6.338-5.162-11.5-11.5-11.5zm0 8.05c1.919 0 3.45 1.531 3.45 3.45s-1.531 3.45-3.45 3.45-3.45-1.531-3.45-3.45 1.531-3.45 3.45-3.45z" fill="url(#a)"/></svg>