<svg fill="none" height="45" viewBox="0 0 44 45" width="44" xmlns="http://www.w3.org/2000/svg" xmlns:xlink="http://www.w3.org/1999/xlink"><linearGradient id="a" gradientUnits="userSpaceOnUse" x1="9.17188" x2="29.0495" y1="30.7863" y2="-.660447"><stop offset="0" stop-color="#4312a5"/><stop offset=".25638" stop-color="#6233df"/><stop offset="1" stop-color="#849bff"/></linearGradient><path d="m22 14.1006c-1.3719.0014-2.7171.3791-3.8893 1.0919-1.1722.7129-2.1263 1.7336-2.7587 2.9511-1.4691.1596-2.8276.8557-3.8152 1.955-.9876 1.0992-1.5349 2.5242-1.5368 4.002-.00013.788.155 1.5682.4565 2.2962.3014.7281.7434 1.3895 1.3006 1.9467.5571.5572 1.2186.9991 1.9466 1.3006.7281.3015 1.5083.4566 2.2963.4565h13c.6566 0 1.3068-.1293 1.9134-.3806s1.1578-.6196 1.6221-1.0839.8326-1.0155 1.0839-1.6221.3806-1.2568.3806-1.9134c-.0015-1.2653-.4827-2.483-1.3466-3.4075-.8639-.9246-2.0461-1.4872-3.3084-1.5745-.342-1.6965-1.2601-3.2226-2.5988-4.3194-1.3387-1.0969-3.0156-1.697-4.7462-1.6986z" fill="url(#a)"/></svg>