<svg fill="none" height="45" viewBox="0 0 44 45" width="44" xmlns="http://www.w3.org/2000/svg" xmlns:xlink="http://www.w3.org/1999/xlink"><linearGradient id="a" gradientUnits="userSpaceOnUse" x1="8.10283" x2="43.8975" y1="36.2741" y2="-1.39324"><stop offset="0" stop-color="#4312a5"/><stop offset=".25638" stop-color="#6233df"/><stop offset="1" stop-color="#849bff"/></linearGradient><path clip-rule="evenodd" d="m28.0783 23.3203c.2795-2.3529-.3404-4.225-1.9525-5.7403-.2543-.239-.2747-.4128-.0265-.6773.2431-.259.4502-.5531.6562-.8456v-.0001c.0308-.0436.0615-.0873.0923-.1307.3211-.453.306-.8944-.0898-1.3026-.4018-.4142-.8717-.3795-1.3191-.1311-.377.2091-.7252.4786-1.0588.7543-.2506.2073-.415.1756-.6345-.0465-1.2711-1.2869-2.5504-2.5657-3.8367-3.8374-.2255-.2229-.2618-.3863-.0142-.618.2119-.1982.4154-.4054.6189-.6125.2139-.21769.4277-.43538.6513-.64266.5664-.52526 1.1422-.52912 1.7002.02602 2.3387 2.32664 4.6706 4.66024 7.0025 6.99384.727.7275 1.454 1.455 2.1812 2.1822.0138.0138.0278.0275.0419.0412.1506.1466.2979.2899.0651.5213-.9826.9759-1.9627 1.9545-2.9845 2.9747-.3586.3581-.7223.7212-1.093 1.0912zm-6.8131 4.9875h.0006c.661-.0084 1.3261-.0168 1.9008-.1204 1.2195-.2199 2.2736-.7953 3.1574-1.6868.7999-.8069 1.6043-1.6093 2.4088-2.4116 1.2711-1.2678 2.5423-2.5356 3.7951-3.8212.46-.472.7402-.4498 1.1293.0252l.9601.9815c.509.5677.5208 1.1697-.0185 1.7123-2.3211 2.335-4.65 4.6624-6.9788 6.9898l-.0009.0009c-.7487.7482-1.4975 1.4965-2.2459 2.245-.0166.0165-.0327.0336-.0486.0505-.1198.1272-.227.241-.4373.0262-.8205-.8388-1.6478-1.6709-2.4752-2.5029l-.0003-.0004c-.4319-.4343-.8638-.8687-1.2947-1.304-.0253-.0257-.1628-.175-.1639-.1798.1037-.0017.2078-.003.312-.0043zm4.836-12.7439c.0387-.0538.0763-.106.1127-.1556.024-.1345-.0156-.2165-.1071-.255-.1777-.0742-.2989.0268-.4163.1247-.0221.0184-.044.0367-.0662.0536-.656.503-1.3114 1.0068-1.9668 1.5105l-.0005.0004-.0007.0006c-1.2676.9742-2.5352 1.9485-3.8072 2.9169-.4204.3199-.4359.6427-.1438 1.0516.2312.3235.4569.6509.6827.9783.3458.5015.6915 1.0028 1.0564 1.49.2638.3522.2648.588-.0184.9358-1.1413 1.402-2.2538 2.8277-3.3644 4.2546-.0276.0355-.0646.0718-.103.1094-.1325.13-.281.2756-.1127.4577.1758.1902.333.0467.4759-.0837h.0001c.0344-.0314.0679-.062.1008-.0871.6803-.5191 1.3597-1.0396 2.0391-1.5601l.0004-.0002.0001-.0001c1.2099-.927 2.4198-1.8539 3.6353-2.7734.4367-.3305.4966-.6594.1816-1.1034-.2356-.332-.4646-.6687-.6936-1.0053l-.0001-.0001c-.3501-.5146-.7002-1.0292-1.0732-1.5266-.2458-.3277-.2105-.5225.0286-.8186.8721-1.0792 1.7303-2.1697 2.5886-3.2601l.0002-.0003c.2317-.2943.4633-.5886.6952-.8827.0976-.1237.1898-.2516.2762-.3718zm-10.1768 5.3707c-.2795 2.3528.3404 4.2249 1.9525 5.7403.2543.239.2747.4128.0265.6772-.2431.2591-.4502.5532-.6562.8457v.0001c-.0308.0436-.0615.0872-.0923.1307-.3211.453-.3061.8944.0898 1.3026.4017.4142.8717.3795 1.3191.1311.377-.2091.7252-.4786 1.0588-.7544.2506-.2072.415-.1755.6345.0466 1.2711 1.2869 2.5504 2.5657 3.8367 3.8374.2255.2229.2618.3863.0141.618-.2118.1982-.4153.4053-.6188.6124v.0001c-.2139.2177-.4277.4354-.6513.6426-.5664.5253-1.1422.5292-1.7002-.026-2.3385-2.3265-4.6702-4.6598-7.002-6.9932l-.0075-.0075c-.7246-.7252-1.4493-1.4504-2.1742-2.1754-.0138-.0137-.0279-.0274-.0419-.0411-.1506-.1466-.2979-.2899-.0651-.5213.9827-.976 1.9627-1.9546 2.9846-2.9748.3585-.358.7222-.7212 1.0929-1.0911zm6.811-4.9924c.1044-.0013.2087-.0026.3125-.0043-.0011-.0048-.1385-.1541-.1638-.1798-.4309-.4353-.8628-.8696-1.2947-1.304-.8274-.8322-1.6549-1.6644-2.4755-2.5033-.2103-.2149-.3176-.101-.4373.0262-.0159.0168-.032.0339-.0486.0505-.7484.7484-1.497 1.4966-2.2456 2.2447-2.3293 2.3278-4.6586 4.6556-6.98005 6.991-.53931.5426-.52747 1.1446-.01845 1.7123l.9601.9815c.3891.475.6693.4972 1.1293.0252 1.2528-1.2856 2.5239-2.5534 3.795-3.8212.8045-.8023 1.609-1.6047 2.4088-2.4116.8838-.8915 1.9379-1.4669 3.1574-1.6868.5748-.1037 1.2398-.112 1.9009-.1204z" fill="url(#a)" fill-rule="evenodd"/></svg>