<svg fill="none" height="45" viewBox="0 0 44 45" width="44" xmlns="http://www.w3.org/2000/svg" xmlns:xlink="http://www.w3.org/1999/xlink"><linearGradient id="a" gradientUnits="userSpaceOnUse" x1="9.20093" x2="39.2942" y1="33.9429" y2=".533591"><stop offset="0" stop-color="#4312a5"/><stop offset=".25638" stop-color="#6233df"/><stop offset="1" stop-color="#849bff"/></linearGradient><path d="m16.9474 11c-1.2795 0-2.3158 1.0363-2.3158 2.3158v8.1053c0 1.2794 1.0363 2.3157 2.3158 2.3157h3.4737v3.4737c0 1.2657 1.0501 2.3158 2.3157 2.3158h8.1053c1.2657 0 2.3158-1.0501 2.3158-2.3158v-8.1052c0-1.2657-1.0501-2.3158-2.3158-2.3158h-3.4737v-3.4737c0-1.2795-1.0363-2.3158-2.3158-2.3158zm10.421 8.1053h3.4737v8.1052h-8.1053v-3.4737h2.3158c1.2795 0 2.3158-1.0363 2.3158-2.3157zm-17.3684 4.6315v4.6316c0 1.2657 1.0501 2.3158 2.3158 2.3158h3.4737v2.3158l3.4737-3.4737-3.4737-3.4737v2.3158h-3.4737v-4.6316z" fill="url(#a)"/></svg>