<svg fill="none" height="45" viewBox="0 0 44 45" width="44" xmlns="http://www.w3.org/2000/svg" xmlns:xlink="http://www.w3.org/1999/xlink"><linearGradient id="a" gradientUnits="userSpaceOnUse" x1="10.2754" x2="39.117" y1="33.9" y2="3.48132"><stop offset="0" stop-color="#4312a5"/><stop offset=".25638" stop-color="#6233df"/><stop offset="1" stop-color="#849bff"/></linearGradient><path clip-rule="evenodd" d="m25.7 12v2.1h4.2v4.2h2.1v-6.3zm4.2 6.3h-2.1v2.1h2.1zm-2.1 2.1h-2.1v2.1h2.1zm-2.1 2.1h-2.1v2.1h2.1zm-2.1 2.1h-2.1v2.1h2.1zm-2.1 2.1h-4.2v2.1h4.2zm0 2.1v2.1h-2.1v2.1h4.2v-4.2zm-4.2 0h-2.1v2.1h2.1zm-2.1 2.1h-2.1v-2.1h-2.1v4.2h4.2zm-2.1-2.1h2.1v-2.1h-2.1zm2.1-2.1h2.1v-4.2h-2.1zm0-4.2v-2.1h-4.2v4.2h2.1v-2.1zm2.1 0h2.1v-2.1h-2.1zm2.1-2.1h2.1v-2.1h-2.1zm2.1-2.1h2.1v-2.1h-2.1zm2.1-2.1h2.1v-2.1h-2.1z" fill="url(#a)" fill-rule="evenodd"/></svg>