<svg fill="none" height="45" viewBox="0 0 44 45" width="44" xmlns="http://www.w3.org/2000/svg" xmlns:xlink="http://www.w3.org/1999/xlink"><linearGradient id="a" gradientUnits="userSpaceOnUse" x1="13.4249" x2="45.7809" y1="36.0714" y2="13.3212"><stop offset="0" stop-color="#4312a5"/><stop offset=".25638" stop-color="#6233df"/><stop offset="1" stop-color="#849bff"/></linearGradient><path d="m16.2584 10c-.2977.0007-.5922.06-.8668.1747-.2747.1146-.524.2823-.7338.4934-.2097.2111-.3758.4616-.4887.7369-.1128.2754-.1703.5703-.1691.8679v20.4542c-.0012.2976.0563.5925.1691.8679.1129.2753.279.5258.4887.7369.2098.2111.4591.3788.7338.4934.2746.1147.5691.174.8668.1747h12.15c.2976-.0007.5921-.06.8667-.1747.2747-.1146.524-.2823.7338-.4934.2097-.2111.3758-.4616.4887-.7369.1129-.2754.1703-.5703.1691-.8679v-20.4542c.0012-.2976-.0562-.5925-.1691-.8679-.1129-.2753-.279-.5258-.4887-.7369-.2098-.2111-.4591-.3788-.7338-.4934-.2746-.1147-.5691-.174-.8667-.1747zm0 2.2729h12.15v11.3625h-12.15zm2.6822 2.2729v2.2719h6.7855v-2.2719zm0 4.5448v2.2729h6.7855v-2.2729zm3.3928 8.5229c.9364 0 1.6958.7636 1.6958 1.7042s-.7594 1.7052-1.6958 1.7052c-.451-.0014-.883-.1818-1.201-.5015-.318-.3198-.496-.7527-.4949-1.2037 0-.9406.7594-1.7042 1.6959-1.7042z" fill="url(#a)"/></svg>