<svg fill="none" height="45" viewBox="0 0 44 45" width="44" xmlns="http://www.w3.org/2000/svg" xmlns:xlink="http://www.w3.org/1999/xlink"><linearGradient id="a" gradientUnits="userSpaceOnUse" x1="12.3651" x2="43.5472" y1="34.9857" y2="8.67604"><stop offset="0" stop-color="#4312a5"/><stop offset=".25638" stop-color="#6233df"/><stop offset="1" stop-color="#849bff"/></linearGradient><path d="m29.1 11h-13.8c-.6098.0008-1.1943.2433-1.6255.6745s-.6737 1.0157-.6745 1.6255v18.4c.0008.6098.2433 1.1943.6745 1.6255s1.0157.6737 1.6255.6745h13.8c.6098-.0008 1.1943-.2433 1.6255-.6745s.6737-1.0157.6745-1.6255v-18.4c-.0008-.6098-.2433-1.1943-.6745-1.6255s-1.0157-.6737-1.6255-.6745zm-10.35 19.55h-2.3v-2.3h2.3zm0-4.6h-2.3v-2.3h2.3zm0-4.6h-2.3v-2.3h2.3zm9.2 9.2h-6.9v-2.3h6.9zm0-4.6h-6.9v-2.3h6.9zm0-4.6h-6.9v-2.3h6.9zm0-4.6h-6.9v-2.3h6.9zm-9.2 0h-2.3v-2.3h2.3z" fill="url(#a)"/></svg>