<svg width="263" height="180" viewBox="0 0 263 180" fill="none" xmlns="http://www.w3.org/2000/svg">
<g opacity="0.3">
<path d="M10.4364 5.81755C10.4199 7.19806 9.85962 8.51642 8.87694 9.4868C7.89426 10.4572 6.56842 11.0013 5.18695 11.0012C3.81128 11.0012 2.49197 10.4551 1.51922 9.48294C0.546479 8.51082 1.3199e-08 7.19234 1.3199e-08 5.81755C-9.7884e-05 4.43697 0.544385 3.11198 1.51537 2.12993C2.48635 1.14788 3.80556 0.587923 5.18695 0.571487C6.57414 0.587703 7.89995 1.14562 8.88092 2.12595C9.86188 3.10629 10.4202 4.43125 10.4364 5.81755Z" fill="#C7EBFF"/>
<path d="M36.8122 5.81755C36.7958 7.19806 36.2353 8.51642 35.2527 9.4868C34.27 10.4572 32.9442 11.0013 31.5627 11.0012C30.187 11.0012 28.8677 10.4551 27.895 9.48294C26.9223 8.51082 26.3757 7.19234 26.3757 5.81755C26.3757 4.43697 26.9202 3.11198 27.8911 2.12993C28.8621 1.14788 30.1814 0.587923 31.5627 0.571487C32.9499 0.587703 34.2757 1.14562 35.2567 2.12595C36.2376 3.10629 36.7959 4.43125 36.8122 5.81755Z" fill="#C7EBFF"/>
<path d="M63.2193 5.81762C63.0784 7.10232 62.4679 8.28983 61.5049 9.15247C60.542 10.0151 59.2942 10.4922 58.0011 10.4922C56.7079 10.4922 55.4602 10.0151 54.4971 9.15247C53.5342 8.28983 52.9237 7.10232 52.7828 5.81762C52.7025 5.08486 52.7776 4.34342 53.0031 3.64159C53.2288 2.93977 53.5999 2.29334 54.0922 1.74444C54.5845 1.19554 55.1871 0.756492 55.8606 0.455921C56.5342 0.155349 57.2634 0 58.0011 0C58.7387 0 59.468 0.155349 60.1416 0.455921C60.815 0.756492 61.4177 1.19554 61.9099 1.74444C62.4022 2.29334 62.7733 2.93977 62.999 3.64159C63.2246 4.34342 63.2996 5.08486 63.2193 5.81762Z" fill="#C7EBFF"/>
<path d="M89.6262 5.81755C89.6262 7.19234 89.0798 8.51082 88.107 9.48294C87.1343 10.4551 85.815 11.0012 84.4394 11.0012C83.0579 11.0013 81.7321 10.4572 80.7494 9.4868C79.7666 8.51642 79.2063 7.19806 79.1899 5.81755C79.2062 4.43125 79.7644 3.10629 80.7454 2.12595C81.7263 1.14562 83.0522 0.587703 84.4394 0.571487C85.8207 0.587923 87.14 1.14788 88.1109 2.12993C89.0819 3.11198 89.6264 4.43697 89.6262 5.81755Z" fill="#C7EBFF"/>
<path d="M116.003 5.81755C115.985 7.19806 115.426 8.51642 114.442 9.4868C113.46 10.4572 112.134 11.0013 110.752 11.0012C109.377 11.0012 108.057 10.4551 107.085 9.48294C106.112 8.51082 105.566 7.19234 105.566 5.81755C105.566 4.43697 106.111 3.11198 107.081 2.12993C108.052 1.14788 109.37 0.587923 110.752 0.571487C112.139 0.587703 113.465 1.14562 114.447 2.12595C115.427 3.10629 115.985 4.43125 116.003 5.81755Z" fill="#C7EBFF"/>
<path d="M142.379 5.81755C142.362 7.19806 141.802 8.51642 140.819 9.4868C139.837 10.4572 138.511 11.0013 137.129 11.0012C135.753 11.0012 134.435 10.4551 133.461 9.48294C132.489 8.51082 131.942 7.19234 131.942 5.81755C131.942 4.43697 132.487 3.11198 133.458 2.12993C134.429 1.14788 135.748 0.587923 137.129 0.571487C138.517 0.587703 139.842 1.14562 140.824 2.12595C141.804 3.10629 142.363 4.43125 142.379 5.81755Z" fill="#C7EBFF"/>
<path d="M168.786 5.81762C168.646 7.10232 168.035 8.28983 167.072 9.15247C166.108 10.0151 164.862 10.4922 163.567 10.4922C162.275 10.4922 161.027 10.0151 160.064 9.15247C159.101 8.28983 158.491 7.10232 158.35 5.81762C158.269 5.08486 158.344 4.34342 158.57 3.64159C158.795 2.93977 159.166 2.29334 159.659 1.74444C160.152 1.19554 160.754 0.756492 161.427 0.455921C162.101 0.155349 162.831 0 163.567 0C164.305 0 165.035 0.155349 165.708 0.455921C166.382 0.756492 166.985 1.19554 167.477 1.74444C167.97 2.29334 168.34 2.93977 168.566 3.64159C168.791 4.34342 168.866 5.08486 168.786 5.81762Z" fill="#C7EBFF"/>
<path d="M10.4364 32.7482C10.4199 34.1286 9.85962 35.4469 8.87694 36.4173C7.89426 37.3877 6.56842 37.9319 5.18695 37.9317C3.81128 37.9317 2.49197 37.3857 1.51922 36.4135C0.546479 35.4414 1.3199e-08 34.1229 1.3199e-08 32.7482C-9.7884e-05 31.3676 0.544385 30.0426 1.51537 29.0604C2.48635 28.0784 3.80556 27.5185 5.18695 27.5021C6.57414 27.5183 7.89995 28.0762 8.88092 29.0564C9.86188 30.0369 10.4202 31.3619 10.4364 32.7482Z" fill="#C7EBFF"/>
<path d="M31.5627 37.9319C34.4273 37.9319 36.7497 35.6112 36.7497 32.7484C36.7497 29.8854 34.4273 27.5647 31.5627 27.5647C28.6981 27.5647 26.3757 29.8854 26.3757 32.7484C26.3757 35.6112 28.6981 37.9319 31.5627 37.9319Z" fill="#C7EBFF"/>
<path d="M63.1568 32.7481C63.0159 34.0328 62.4054 35.2203 61.4424 36.0828C60.4795 36.9456 59.2318 37.4225 57.9386 37.4225C56.6454 37.4225 55.3977 36.9456 54.4346 36.0828C53.4717 35.2203 52.8613 34.0328 52.7203 32.7481C52.64 32.0153 52.7151 31.2738 52.9406 30.572C53.1663 29.8701 53.5374 29.2237 54.0298 28.6748C54.522 28.1259 55.1246 27.6869 55.7981 27.3863C56.4717 27.0857 57.2009 26.9304 57.9386 26.9304C58.6763 26.9304 59.4055 27.0857 60.0791 27.3863C60.7525 27.6869 61.3552 28.1259 61.8474 28.6748C62.3398 29.2237 62.7108 29.8701 62.9365 30.572C63.1621 31.2738 63.2372 32.0153 63.1568 32.7481Z" fill="#C7EBFF"/>
<path d="M89.5638 32.7482C89.5638 34.1229 89.0174 35.4414 88.0446 36.4135C87.0718 37.3857 85.7525 37.9317 84.3769 37.9317C82.9955 37.9319 81.6696 37.3877 80.687 36.4173C79.7041 35.4469 79.1439 34.1286 79.1274 32.7482C79.1437 31.3619 79.7019 30.0369 80.683 29.0564C81.6639 28.0762 82.9897 27.5183 84.3769 27.5021C85.7582 27.5185 87.0775 28.0784 88.0484 29.0604C89.0194 30.0426 89.5639 31.3676 89.5638 32.7482Z" fill="#C7EBFF"/>
<path d="M110.69 37.9319C113.554 37.9319 115.877 35.6112 115.877 32.7484C115.877 29.8854 113.554 27.5647 110.69 27.5647C107.826 27.5647 105.503 29.8854 105.503 32.7484C105.503 35.6112 107.826 37.9319 110.69 37.9319Z" fill="#C7EBFF"/>
<path d="M137.003 37.9319C139.869 37.9319 142.191 35.6112 142.191 32.7484C142.191 29.8854 139.869 27.5647 137.003 27.5647C134.138 27.5647 131.816 29.8854 131.816 32.7484C131.816 35.6112 134.138 37.9319 137.003 37.9319Z" fill="#C7EBFF"/>
<path d="M168.598 32.7481C168.457 34.0328 167.847 35.2203 166.884 36.0828C165.92 36.9456 164.673 37.4225 163.379 37.4225C162.086 37.4225 160.838 36.9456 159.876 36.0828C158.913 35.2203 158.302 34.0328 158.162 32.7481C158.081 32.0153 158.156 31.2738 158.382 30.572C158.607 29.8701 158.978 29.2237 159.471 28.6748C159.963 28.1259 160.566 27.6869 161.239 27.3863C161.913 27.0857 162.643 26.9304 163.379 26.9304C164.117 26.9304 164.847 27.0857 165.52 27.3863C166.194 27.6869 166.797 28.1259 167.289 28.6748C167.782 29.2237 168.151 29.8701 168.378 30.572C168.603 31.2738 168.677 32.0153 168.598 32.7481Z" fill="#C7EBFF"/>
<path d="M10.4364 59.0456C10.4202 60.4319 9.86188 61.7568 8.88092 62.7372C7.89995 63.7175 6.57414 64.2755 5.18695 64.2916C3.80556 64.2752 2.48635 63.7153 1.51537 62.7332C0.544385 61.7512 -9.7884e-05 60.4262 1.3199e-08 59.0456C1.3199e-08 57.6708 0.546479 56.3523 1.51922 55.3801C2.49197 54.408 3.81128 53.8619 5.18695 53.8619C6.56842 53.8618 7.89426 54.4059 8.87694 55.3763C9.85962 56.3467 10.4199 57.665 10.4364 59.0456Z" fill="#C7EBFF"/>
<path d="M36.8122 59.0456C36.7959 60.4319 36.2376 61.7568 35.2567 62.7372C34.2757 63.7175 32.9499 64.2755 31.5627 64.2916C30.1814 64.2752 28.8621 63.7153 27.8911 62.7332C26.9202 61.7512 26.3757 60.4262 26.3757 59.0456C26.3757 57.6708 26.9223 56.3523 27.895 55.3801C28.8677 54.408 30.187 53.8619 31.5627 53.8619C32.9442 53.8618 34.27 54.4059 35.2527 55.3763C36.2353 56.3467 36.7958 57.665 36.8122 59.0456Z" fill="#C7EBFF"/>
<path d="M63.25 59.0452C63.2625 60.0879 62.9635 61.1107 62.3914 61.983C61.8195 62.8553 61.0002 63.5372 60.0386 63.942C59.0768 64.3469 58.0162 64.456 56.9921 64.2556C55.968 64.0551 55.0269 63.5542 54.2891 62.8167C53.5512 62.0794 53.0499 61.1389 52.8494 60.1154C52.6489 59.092 52.7581 58.0321 53.1631 57.0711C53.5681 56.1099 54.2507 55.2913 55.1233 54.7196C55.9962 54.1479 57.0197 53.8492 58.063 53.8615C59.4388 53.8615 60.7581 54.4077 61.7309 55.3799C62.7036 56.3519 63.25 57.6703 63.25 59.0452Z" fill="#C7EBFF"/>
<path d="M89.626 59.0456C89.6262 60.4262 89.0817 61.7512 88.1107 62.7332C87.1398 63.7153 85.8205 64.2752 84.4392 64.2916C83.052 64.2755 81.7262 63.7175 80.7453 62.7372C79.7642 61.7568 79.206 60.4319 79.1897 59.0456C79.2061 57.665 79.7664 56.3467 80.7492 55.3763C81.7319 54.4059 83.0577 53.8618 84.4392 53.8619C85.8148 53.8619 87.1341 54.408 88.1069 55.3801C89.0796 56.3523 89.626 57.6708 89.626 59.0456Z" fill="#C7EBFF"/>
<path d="M116.003 59.0456C115.985 60.4319 115.427 61.7568 114.447 62.7372C113.465 63.7175 112.139 64.2755 110.752 64.2916C109.37 64.2752 108.052 63.7153 107.081 62.7332C106.111 61.7512 105.565 60.4262 105.565 59.0456C105.565 57.6708 106.112 56.3523 107.084 55.3801C108.057 54.408 109.377 53.8619 110.752 53.8619C112.134 53.8618 113.46 54.4059 114.442 55.3763C115.426 56.3467 115.985 57.665 116.003 59.0456Z" fill="#C7EBFF"/>
<path d="M142.379 59.0456C142.363 60.4319 141.804 61.7568 140.823 62.7372C139.841 63.7175 138.517 64.2755 137.129 64.2916C135.748 64.2752 134.428 63.7153 133.458 62.7332C132.487 61.7512 131.942 60.4262 131.942 59.0456C131.942 57.6708 132.489 56.3523 133.461 55.3801C134.435 54.408 135.753 53.8619 137.129 53.8619C138.511 53.8618 139.837 54.4059 140.819 55.3763C141.802 56.3467 142.361 57.665 142.379 59.0456Z" fill="#C7EBFF"/>
<path d="M168.817 59.0452C168.83 60.0879 168.53 61.1107 167.958 61.983C167.386 62.8553 166.566 63.5372 165.605 63.942C164.644 64.3469 163.583 64.456 162.559 64.2556C161.534 64.0551 160.594 63.5542 159.856 62.8167C159.118 62.0794 158.617 61.1389 158.417 60.1154C158.216 59.092 158.324 58.0321 158.731 57.0711C159.135 56.1099 159.818 55.2913 160.689 54.7196C161.563 54.1479 162.586 53.8492 163.63 53.8615C165.006 53.8615 166.326 54.4077 167.298 55.3799C168.27 56.3519 168.817 57.6703 168.817 59.0452Z" fill="#C7EBFF"/>
<path d="M10.4364 85.4663C10.4202 86.8526 9.86188 88.1776 8.88092 89.1579C7.89995 90.1383 6.57414 90.6961 5.18695 90.7124C3.80556 90.696 2.48635 90.1359 1.51537 89.1539C0.544385 88.1718 -9.7884e-05 86.8469 1.3199e-08 85.4663C1.3199e-08 84.0916 0.546479 82.7731 1.51922 81.801C2.49197 80.8288 3.81128 80.2826 5.18695 80.2826C6.56842 80.2826 7.89426 80.8267 8.87694 81.7971C9.85962 82.7674 10.4199 84.0858 10.4364 85.4663Z" fill="#C7EBFF"/>
<path d="M36.8122 85.4663C36.7959 86.8526 36.2376 88.1776 35.2567 89.1579C34.2757 90.1383 32.9499 90.6961 31.5627 90.7124C30.1814 90.696 28.8621 90.1359 27.8911 89.1539C26.9202 88.1718 26.3757 86.8469 26.3757 85.4663C26.3757 84.0916 26.9223 82.7731 27.895 81.801C28.8677 80.8288 30.187 80.2826 31.5627 80.2826C32.9442 80.2826 34.27 80.8267 35.2527 81.7971C36.2353 82.7674 36.7958 84.0858 36.8122 85.4663Z" fill="#C7EBFF"/>
<path d="M63.25 85.4667C63.2625 86.5095 62.9635 87.5323 62.3914 88.4044C61.8195 89.2767 61.0002 89.9588 60.0386 90.3635C59.0768 90.7683 58.0162 90.8774 56.9921 90.677C55.968 90.4766 55.0269 89.9757 54.2891 89.2383C53.5512 88.5009 53.0499 87.5605 52.8494 86.537C52.6489 85.5136 52.7581 84.4536 53.1631 83.4925C53.5681 82.5315 54.2507 81.7127 55.1233 81.1412C55.9962 80.5695 57.0197 80.2706 58.063 80.2831C59.4388 80.2831 60.7581 80.8291 61.7309 81.8013C62.7036 82.7734 63.25 84.0919 63.25 85.4667Z" fill="#C7EBFF"/>
<path d="M89.626 85.4663C89.6262 86.8469 89.0817 88.1718 88.1107 89.1539C87.1398 90.1359 85.8205 90.696 84.4392 90.7124C83.052 90.6961 81.7262 90.1383 80.7453 89.1579C79.7642 88.1776 79.206 86.8526 79.1897 85.4663C79.2061 84.0858 79.7664 82.7674 80.7492 81.7971C81.7319 80.8267 83.0577 80.2826 84.4392 80.2826C85.8148 80.2826 87.1341 80.8288 88.1069 81.801C89.0796 82.7731 89.626 84.0916 89.626 85.4663Z" fill="#C7EBFF"/>
<path d="M116.003 85.4663C115.985 86.8526 115.427 88.1776 114.447 89.1579C113.465 90.1383 112.139 90.6961 110.752 90.7124C109.37 90.696 108.052 90.1359 107.081 89.1539C106.111 88.1718 105.565 86.8469 105.565 85.4663C105.565 84.0916 106.112 82.7731 107.084 81.801C108.057 80.8288 109.377 80.2826 110.752 80.2826C112.134 80.2826 113.46 80.8267 114.442 81.7971C115.426 82.7674 115.985 84.0858 116.003 85.4663Z" fill="#C7EBFF"/>
<path d="M142.379 85.4663C142.363 86.8526 141.804 88.1776 140.823 89.1579C139.841 90.1383 138.517 90.6961 137.129 90.7124C135.748 90.696 134.428 90.1359 133.458 89.1539C132.487 88.1718 131.942 86.8469 131.942 85.4663C131.942 84.0916 132.489 82.7731 133.461 81.801C134.435 80.8288 135.753 80.2826 137.129 80.2826C138.511 80.2826 139.837 80.8267 140.819 81.7971C141.802 82.7674 142.361 84.0858 142.379 85.4663Z" fill="#C7EBFF"/>
<path d="M168.817 85.4667C168.83 86.5095 168.53 87.5323 167.958 88.4044C167.386 89.2767 166.566 89.9588 165.605 90.3635C164.644 90.7683 163.583 90.8774 162.559 90.677C161.534 90.4766 160.594 89.9757 159.856 89.2383C159.118 88.5009 158.617 87.5605 158.417 86.537C158.216 85.5136 158.324 84.4536 158.731 83.4925C159.135 82.5315 159.818 81.7127 160.689 81.1412C161.563 80.5695 162.586 80.2706 163.63 80.2831C165.006 80.2831 166.326 80.8291 167.298 81.8013C168.27 82.7734 168.817 84.0919 168.817 85.4667Z" fill="#C7EBFF"/>
<path d="M10.4364 111.889C10.4202 113.275 9.86188 114.6 8.88092 115.58C7.89995 116.559 6.57414 117.119 5.18695 117.134C3.80556 117.119 2.48635 116.558 1.51537 115.577C0.544385 114.594 -9.7884e-05 113.268 1.3199e-08 111.889C1.3199e-08 110.513 0.546479 109.195 1.51922 108.222C2.49197 107.25 3.81128 106.704 5.18695 106.704C6.56842 106.704 7.89426 107.249 8.87694 108.219C9.85962 109.189 10.4199 110.508 10.4364 111.889Z" fill="#C7EBFF"/>
<path d="M36.5621 111.887C36.6303 113.286 36.1432 114.654 35.2069 115.694C34.2706 116.736 32.9609 117.365 31.5625 117.447C30.1812 117.429 28.8619 116.87 27.8911 115.887C26.92 114.906 26.3755 113.581 26.3757 112.2C26.3757 110.825 26.9221 109.508 27.8949 108.534C28.8677 107.563 30.187 107.016 31.5625 107.016C32.8487 107.075 34.0685 107.602 34.9903 108.501C35.9121 109.399 36.4714 110.605 36.5621 111.887Z" fill="#C7EBFF"/>
<path d="M63.0062 111.889C63.0187 112.931 62.7197 113.953 62.1476 114.826C61.5757 115.699 60.7564 116.381 59.7948 116.786C58.833 117.19 57.7724 117.3 56.7483 117.099C55.7242 116.899 54.7831 116.397 54.0453 115.659C53.3074 114.924 52.8061 113.982 52.6056 112.959C52.4051 111.935 52.5143 110.876 52.9193 109.914C53.3243 108.953 54.0069 108.135 54.8795 107.563C55.7524 106.991 56.7759 106.693 57.8192 106.706C59.195 106.706 60.5143 107.25 61.4871 108.224C62.4598 109.195 63.0062 110.514 63.0062 111.889Z" fill="#C7EBFF"/>
<path d="M89.3822 111.889C89.3824 113.268 88.8379 114.594 87.8669 115.577C86.896 116.558 85.5767 117.119 84.1954 117.134C82.8082 117.119 81.4824 116.559 80.5014 115.58C79.5204 114.6 78.9622 113.275 78.9459 111.889C78.9623 110.508 79.5226 109.189 80.5054 108.219C81.4881 107.249 82.8139 106.704 84.1954 106.704C85.571 106.704 86.8903 107.25 87.8631 108.222C88.8358 109.195 89.3822 110.513 89.3822 111.889Z" fill="#C7EBFF"/>
<path d="M115.759 111.889C115.741 113.275 115.183 114.6 114.203 115.58C113.221 116.559 111.895 117.119 110.508 117.134C109.126 117.119 107.808 116.558 106.837 115.577C105.867 114.594 105.322 113.268 105.322 111.889C105.322 110.513 105.868 109.195 106.841 108.222C107.813 107.25 109.133 106.704 110.508 106.704C111.89 106.704 113.216 107.249 114.198 108.219C115.182 109.189 115.741 110.508 115.759 111.889Z" fill="#C7EBFF"/>
<path d="M142.135 111.889C142.119 113.275 141.56 114.6 140.58 115.58C139.598 116.559 138.273 117.119 136.885 117.134C135.504 117.119 134.185 116.558 133.214 115.577C132.243 114.594 131.698 113.268 131.698 111.889C131.698 110.513 132.245 109.195 133.217 108.222C134.191 107.25 135.509 106.704 136.885 106.704C138.267 106.704 139.593 107.249 140.575 108.219C141.558 109.189 142.118 110.508 142.135 111.889Z" fill="#C7EBFF"/>
<path d="M168.573 111.889C168.586 112.931 168.286 113.953 167.714 114.826C167.142 115.699 166.323 116.381 165.361 116.786C164.4 117.19 163.339 117.3 162.315 117.099C161.29 116.899 160.35 116.397 159.612 115.659C158.874 114.924 158.374 113.982 158.173 112.959C157.972 111.935 158.08 110.876 158.487 109.914C158.892 108.953 159.574 108.135 160.446 107.563C161.319 106.991 162.342 106.693 163.387 106.706C164.762 106.706 166.082 107.25 167.054 108.224C168.026 109.195 168.573 110.514 168.573 111.889Z" fill="#C7EBFF"/>
</g>
</svg>
